<svg width="144" height="154" viewBox="0 0 144 154" fill="none" xmlns="http://www.w3.org/2000/svg">
<path d="M107.997 36.2836H108L108 72.7874C108 77.7579 112.029 81.7874 117 81.7874C121.971 81.7874 126 77.7579 126 72.7874H144C144 87.6991 131.912 99.7874 117 99.7874C110.085 99.7874 103.777 97.1877 99 92.9123V122.287H81V90.7874H63V122.287H45V92.9123C40.2232 97.1877 33.9152 99.7874 27 99.7874C12.0883 99.7874 2.93625e-05 87.699 3.02905e-05 72.7874H18C18 77.7579 22.0295 81.7874 27 81.7874C31.9657 81.7874 35.9922 77.7658 36 72.8019V36.2836H36.0035C36.2729 16.6336 52.2859 0.787354 72 0.787354C91.7141 0.787354 107.727 16.6336 107.997 36.2836Z" fill="#18AEC2"/>
<path d="M9.2261 100.014C3.52574 105.714 0 113.589 0 122.287C0 139.684 14.103 153.787 31.5 153.787C48.8969 153.787 63 139.684 63 122.287H45C45 129.743 38.9558 135.787 31.5 135.787C24.0441 135.787 18 129.743 18 122.287C18 118.559 19.511 115.184 21.954 112.741L9.2261 100.014Z" fill="#18AEC2"/>
<path d="M144 122.287C144 113.589 140.474 105.714 134.774 100.014L122.046 112.741C124.489 115.184 126 118.559 126 122.287C126 129.743 119.956 135.787 112.5 135.787C105.044 135.787 99 129.743 99 122.287H81C81 139.684 95.1031 153.787 112.5 153.787C129.897 153.787 144 139.684 144 122.287Z" fill="#18AEC2"/>
</svg>
